<svg width="1216" height="404" viewBox="0 0 1216 404" fill="none" xmlns="http://www.w3.org/2000/svg">
<rect width="1216" height="404" fill="url(#paint0_linear_498_67)" fill-opacity="0.4"/>
<g opacity="0.35">
<mask id="mask0_498_67" style="mask-type:alpha" maskUnits="userSpaceOnUse" x="0" y="0" width="1216" height="404">
<rect width="1216" height="404" fill="url(#paint1_linear_498_67)" fill-opacity="0.4"/>
</mask>
<g mask="url(#mask0_498_67)">
<rect x="-164.449" y="202.152" width="232.348" height="232.348" transform="rotate(-45 -164.449 202.152)" stroke="white" stroke-width="7.85052"/>
<rect x="5.552" width="56.9581" height="56.9581" transform="matrix(0.707215 -0.706999 0.707215 0.706999 -44.2819 81.7456)" stroke="white" stroke-width="7.85052"/>
<rect x="5.552" width="56.9581" height="56.9581" transform="matrix(0.707215 -0.706999 0.707215 0.706999 -44.2819 329.695)" stroke="white" stroke-width="7.85052"/>
<rect x="5.552" width="56.9581" height="56.9581" transform="matrix(0.707215 -0.706999 0.707215 0.706999 79.6036 206.193)" stroke="white" stroke-width="7.85052"/>
<rect x="-77.6059" y="124.367" width="154.601" height="154.601" stroke="white" stroke-width="7.8"/>
<path d="M0.180908 123.385V123.385C0.180908 167.425 35.8826 203.127 79.9229 203.127V203.127" stroke="white" stroke-width="8"/>
<path d="M0.180908 282.867V282.867C0.180912 238.827 -35.5208 203.125 -79.561 203.125V203.125" stroke="white" stroke-width="8"/>
<path d="M0.180908 123.385V123.385C0.180908 167.425 -35.5208 203.127 -79.561 203.127V203.127" stroke="white" stroke-width="8"/>
<path d="M0.180908 282.867V282.867C0.180912 238.827 35.8826 203.125 79.9229 203.125V203.125" stroke="white" stroke-width="8"/>
<rect x="1051.55" y="202.152" width="232.348" height="232.348" transform="rotate(-45 1051.55 202.152)" stroke="white" stroke-width="7.85052"/>
<rect x="5.552" width="56.9581" height="56.9581" transform="matrix(0.707215 -0.706999 0.707215 0.706999 1171.72 81.7456)" stroke="white" stroke-width="7.85052"/>
<rect x="5.552" width="56.9581" height="56.9581" transform="matrix(0.707215 -0.706999 0.707215 0.706999 1171.72 329.695)" stroke="white" stroke-width="7.85052"/>
<rect x="5.552" width="56.9581" height="56.9581" transform="matrix(0.707215 -0.706999 0.707215 0.706999 1047.63 206.193)" stroke="white" stroke-width="7.85052"/>
<rect x="1138.39" y="124.367" width="154.601" height="154.601" stroke="white" stroke-width="7.8"/>
<path d="M1216.18 123.385V123.385C1216.18 167.425 1251.88 203.127 1295.92 203.127V203.127" stroke="white" stroke-width="8"/>
<path d="M1216.18 282.867V282.867C1216.18 238.827 1180.48 203.125 1136.44 203.125V203.125" stroke="white" stroke-width="8"/>
<path d="M1216.18 123.385V123.385C1216.18 167.425 1180.48 203.127 1136.44 203.127V203.127" stroke="white" stroke-width="8"/>
<path d="M1216.18 282.867V282.867C1216.18 238.827 1251.88 203.125 1295.92 203.125V203.125" stroke="white" stroke-width="8"/>
</g>
</g>
<defs>
<linearGradient id="paint0_linear_498_67" x1="608" y1="0" x2="608" y2="404" gradientUnits="userSpaceOnUse">
<stop stop-color="#2C2C2C"/>
<stop offset="1" stop-color="#161719" stop-opacity="0.015625"/>
</linearGradient>
<linearGradient id="paint1_linear_498_67" x1="608" y1="0" x2="608" y2="404" gradientUnits="userSpaceOnUse">
<stop stop-color="#2C2C2C"/>
<stop offset="1" stop-color="#161719" stop-opacity="0.015625"/>
</linearGradient>
</defs>
</svg>
