<svg width="35" height="25" viewBox="0 0 35 25" fill="none" xmlns="http://www.w3.org/2000/svg">
<path d="M17.4997 23.9934V4.73215C17.4997 4.58262 17.5793 4.44293 17.7071 4.3675C23.4731 0.963849 28.0882 0.763583 29.9854 1.13321C30.1715 1.16946 30.2969 1.33821 30.2969 1.52967V4.80906M17.4997 23.9934C19.4353 22.964 24.5366 21.095 29.8253 21.6093C30.0762 21.6337 30.2969 21.4369 30.2969 21.1822V4.80906M17.4997 23.9934H33.5802C33.812 23.9934 33.9998 23.8036 33.9998 23.5694V5.23303C33.9998 4.99888 33.812 4.80906 33.5802 4.80906H30.2969M17.4997 24V4.73877C17.4997 4.58925 17.4202 4.44955 17.2924 4.37413C11.5264 0.970474 6.91126 0.770208 5.01406 1.13984C4.828 1.17609 4.70254 1.34483 4.70254 1.5363V4.81569M17.4997 24C15.5642 22.9707 10.4629 21.1016 5.17419 21.616C4.9233 21.6404 4.70254 21.4435 4.70254 21.1888V4.81569M17.4997 24H1.41958C1.18785 24 1 23.8102 1 23.576V5.23965C1 5.0055 1.18785 4.81569 1.41958 4.81569H4.70254" stroke="white" stroke-width="1.2"/>
</svg>
