<svg width="40" height="40" viewBox="0 0 40 40" fill="none" xmlns="http://www.w3.org/2000/svg">
<circle cx="20" cy="20" r="20" fill="url(#paint0_linear_1819_2433)"/>
<path d="M19.4448 22.022C19.4448 21.554 19.5228 21.146 19.6788 20.798C19.8348 20.45 20.0268 20.138 20.2548 19.862C20.4948 19.586 20.7528 19.334 21.0288 19.106C21.3048 18.866 21.5628 18.632 21.8028 18.404C22.0428 18.164 22.2348 17.912 22.3788 17.648C22.5348 17.384 22.6128 17.078 22.6128 16.73C22.6128 16.154 22.3848 15.686 21.9288 15.326C21.4728 14.966 20.8428 14.786 20.0388 14.786C19.3188 14.786 18.6948 14.906 18.1668 15.146C17.6388 15.386 17.1888 15.74 16.8168 16.208L15.5028 15.272C16.0068 14.636 16.6488 14.144 17.4288 13.796C18.2088 13.436 19.1208 13.256 20.1648 13.256C21.0288 13.256 21.7788 13.388 22.4148 13.652C23.0508 13.904 23.5428 14.27 23.8908 14.75C24.2508 15.218 24.4308 15.788 24.4308 16.46C24.4308 16.964 24.3528 17.396 24.1968 17.756C24.0408 18.116 23.8428 18.434 23.6028 18.71C23.3628 18.986 23.1048 19.244 22.8288 19.484C22.5648 19.724 22.3128 19.964 22.0728 20.204C21.8328 20.444 21.6348 20.708 21.4788 20.996C21.3228 21.284 21.2448 21.626 21.2448 22.022H19.4448ZM20.3628 26.108C20.0268 26.108 19.7448 25.994 19.5168 25.766C19.3008 25.538 19.1928 25.268 19.1928 24.956C19.1928 24.62 19.3008 24.344 19.5168 24.128C19.7448 23.912 20.0268 23.804 20.3628 23.804C20.6988 23.804 20.9748 23.912 21.1908 24.128C21.4068 24.344 21.5148 24.62 21.5148 24.956C21.5148 25.268 21.4068 25.538 21.1908 25.766C20.9748 25.994 20.6988 26.108 20.3628 26.108Z" fill="white"/>
<defs>
<linearGradient id="paint0_linear_1819_2433" x1="20" y1="0" x2="20" y2="54" gradientUnits="userSpaceOnUse">
<stop stop-color="#050505"/>
<stop offset="1" stop-color="#050505" stop-opacity="0"/>
</linearGradient>
</defs>
</svg>
