<svg width="238" height="239" viewBox="0 0 238 239" fill="none" xmlns="http://www.w3.org/2000/svg">
<path d="M119.435 123.112H106.663C105.823 123.112 105.073 122.587 104.785 121.798L92.8437 89.118C92.5965 88.4414 92.0046 87.95 91.294 87.8316L12.7389 74.7391C11.9658 74.6102 11.3391 74.0416 11.136 73.2846L4.72251 49.3796C4.38167 48.1092 5.33887 46.8613 6.65419 46.8613H119.435M118.76 123.112H131.532C132.372 123.112 133.123 122.587 133.411 121.798L145.352 89.118C145.599 88.4414 146.191 87.95 146.901 87.8316L225.457 74.7391C226.23 74.6102 226.856 74.0416 227.059 73.2846L233.473 49.3796C233.814 48.1092 232.857 46.8613 231.541 46.8613H118.76" stroke="white" stroke-width="5"/>
<rect x="2.5" y="214.01" width="232.524" height="21.9914" rx="10.9957" stroke="white" stroke-width="5"/>
<path d="M29.6892 162.924H25.2422C22.4808 162.924 20.2422 165.162 20.2422 167.924V212.858H68.8267V167.924C68.8267 165.162 66.5881 162.924 63.8267 162.924H59.3797M29.6892 162.924V155.127C29.6892 153.47 31.0323 152.127 32.6892 152.127H56.3797C58.0366 152.127 59.3797 153.47 59.3797 155.127V162.924M29.6892 162.924H59.3797" stroke="white" stroke-width="5"/>
<path d="M103.916 162.924H99.4687C96.7073 162.924 94.4688 165.162 94.4688 167.924V212.858H143.053V167.924C143.053 165.162 140.815 162.924 138.053 162.924H133.606M103.916 162.924V155.127C103.916 153.47 105.259 152.127 106.916 152.127H130.606C132.263 152.127 133.606 153.47 133.606 155.127V162.924M103.916 162.924H133.606" stroke="white" stroke-width="5"/>
<path d="M178.142 162.924H173.695C170.934 162.924 168.695 165.162 168.695 167.924V212.858H217.28V167.924C217.28 165.162 215.041 162.924 212.28 162.924H207.833M178.142 162.924V155.127C178.142 153.47 179.485 152.127 181.142 152.127H204.833C206.49 152.127 207.833 153.47 207.833 155.127V162.924M178.142 162.924H207.833" stroke="white" stroke-width="5"/>
<circle cx="44.5368" cy="187.216" r="9.64613" stroke="white" stroke-width="5"/>
<circle cx="118.763" cy="187.216" r="9.64613" stroke="white" stroke-width="5"/>
<circle cx="192.99" cy="187.216" r="9.64613" stroke="white" stroke-width="5"/>
<path d="M28.4934 46.1864C26.469 39.4386 25.1182 26.5442 33.8917 24.5933C39.9641 23.2429 44.0128 25.2679 45.3624 25.2679M45.3624 25.2679V3M45.3624 25.2679C44.6883 20.9943 39.4246 13.1218 31.8659 13.1218M62.2299 46.1864C64.2542 39.4386 65.605 26.5442 56.8316 24.5933C50.7592 23.2429 46.7104 25.2679 45.3609 25.2679M45.3609 25.2679V3M45.3609 25.2679C46.035 20.9943 51.2986 13.1218 58.8573 13.1218" stroke="white" stroke-width="5" stroke-linecap="round" stroke-linejoin="round"/>
<circle cx="39.1405" cy="36.0644" r="2.69914" fill="white"/>
<circle cx="52.6366" cy="36.0644" r="2.69914" fill="white"/>
<circle cx="118.762" cy="74" r="12.5" stroke="white" stroke-width="5"/>
<path d="M125.509 46.8606C139.729 38.6503 145.225 21.4107 138.53 6.81913C137.839 5.3132 135.989 4.82537 134.554 5.6538L85.0785 34.2188C83.6437 35.0472 83.1427 36.8882 84.0367 38.2832C86.1876 41.6388 88.7244 44.792 91.7693 46.8606" stroke="white" stroke-width="5"/>
<path d="M120.369 13.9553C123.78 19.8638 121.756 27.4189 115.848 30.8302C109.939 34.2415 102.384 32.2171 98.9727 26.3086" stroke="white" stroke-width="5"/>
<path d="M164.29 47C161.628 42.6771 157.9 31.5742 164.29 21.7453C169.616 13.5564 179.602 17.6512 184.262 19.6977M184.262 19.6977C188.922 17.6512 198.908 13.5564 204.233 21.7453C210.624 31.5742 206.896 42.6771 204.233 47M184.262 19.6977C184.262 16.0578 182.93 7.82233 177.605 4" stroke="white" stroke-width="5" stroke-linecap="round" stroke-linejoin="round"/>
</svg>
