<svg width="232" height="198" viewBox="0 0 232 198" fill="none" xmlns="http://www.w3.org/2000/svg">
<path d="M170.291 195C149.101 195 108.17 177.907 111.5 106.122C113.826 55.9852 151.393 17.2433 170.29 3C189.186 17.2433 226.944 55.9852 229.269 106.122C232.599 177.908 192.048 195 170.291 195ZM170.291 195L170.29 159.107M170.29 159.107L201.784 127.772M170.29 159.107L170.29 110.68M170.29 110.68L198.348 82.7626M170.29 110.68L170.29 65.1009M170.29 110.68L142.232 82.7626M170.29 26.3846L170.29 65.1009M170.29 65.1009L187.468 48.0089M170.29 65.1009L153.111 48.0089M170.289 159.107L138.795 127.772" stroke="white" stroke-width="5" stroke-linecap="round" stroke-linejoin="round"/>
<path d="M110.789 119.929L82.8436 92.1077M110.789 119.929L65.164 119.929M110.789 119.929L82.8436 147.75M26.3846 119.929L65.164 119.929M65.164 119.929L48.0546 102.896M65.164 119.929L48.0546 136.963M130.179 177.084C124.476 179.356 111.03 178.443 106.226 178.223C56.039 175.917 17.2578 138.666 3 119.93C17.2578 101.193 56.039 63.754 106.226 61.448C112.098 61.1782 117.604 61.1989 122.765 61.4762" stroke="white" stroke-width="5" stroke-linecap="round" stroke-linejoin="round"/>
</svg>
