<svg width="195" height="198" viewBox="0 0 195 198" fill="none" xmlns="http://www.w3.org/2000/svg">
<g clip-path="url(#clip0_2581_2)">
<path d="M192.014 82.0484V166.782C190.335 176.135 169.743 194.84 100.805 194.84C31.8661 194.84 11.274 176.135 9.59534 166.782V82.0484M192.014 82.0484C188.656 90.6527 161.238 105.056 100.805 105.056C60.5567 105.056 34.9522 98.6673 21.3462 91.8581M192.014 82.0484C191.399 76.5994 185.138 68.3458 167.953 61.8454M9.59534 82.0484L3.03068 61.8454M9.59534 82.0484C10.7167 84.9223 14.5225 88.4431 21.3462 91.8581M21.3462 91.8581C34.0298 94.3863 70.3644 96.1879 114.234 83.1692C138.271 78.3482 174.286 59.8589 186.794 49.7636C189.751 47.377 190.407 43.5157 189.529 39.8185L183.711 15.3142C182.953 12.1234 180.69 9.47238 177.573 8.45217C121.081 -10.0389 43.3074 23.1123 21.3462 39.3997C6.94205 50.0824 2.46814 57.3776 3.03068 61.8454M3.03068 61.8454C16.0871 66.8956 55.4375 72.1783 100.805 57.9392C116.895 52.8889 161.828 39.3997 181.127 12.2435" stroke="white" stroke-width="5"/>
<mask id="mask0_2581_2" style="mask-type:luminance" maskUnits="userSpaceOnUse" x="74" y="122" width="54" height="54">
<path d="M123.4 146.016L103.602 126.217C102.04 124.655 99.5071 124.655 97.945 126.217L78.1466 146.016C76.5845 147.578 76.5845 150.11 78.1466 151.672L97.945 171.471C99.5071 173.033 102.04 173.033 103.602 171.471L123.4 151.672C124.962 150.11 124.962 147.578 123.4 146.016Z" stroke="white" stroke-width="5"/>
</mask>
<g mask="url(#mask0_2581_2)">
<path d="M123.4 146.016L103.602 126.217C102.04 124.655 99.5071 124.655 97.945 126.217L78.1466 146.016C76.5845 147.578 76.5845 150.11 78.1466 151.672L97.945 171.471C99.5071 173.033 102.04 173.033 103.602 171.471L123.4 151.672C124.962 150.11 124.962 147.578 123.4 146.016Z" stroke="white" stroke-width="5"/>
</g>
</g>
<defs>
<clipPath id="clip0_2581_2">
<rect width="195" height="198" fill="white"/>
</clipPath>
</defs>
</svg>
