<svg width="50" height="50" viewBox="0 0 50 50" fill="none" xmlns="http://www.w3.org/2000/svg">
<circle cx="25" cy="25" r="25" fill="#131313"/>
<path d="M25.0001 14.1784C20.5628 14.1784 16.3491 13.784 14.7397 17.9113C14.0749 19.616 14.1714 21.8298 14.1714 24.9998C14.1714 27.7814 14.0822 30.3958 14.7397 32.087C16.3454 36.2168 20.5933 35.8211 24.9977 35.8211C29.2468 35.8211 33.6279 36.2632 35.2569 32.087C35.9229 30.3653 35.8252 28.1844 35.8252 24.9998C35.8252 20.7723 36.0586 18.0432 34.0067 15.9942C31.9292 13.9183 29.1197 14.1784 24.9952 14.1784H25.0001ZM24.0298 16.1285C33.2857 16.1139 34.4638 15.0857 33.8136 29.3689C33.5827 34.4205 29.7332 33.8662 25.0013 33.8662C16.3736 33.8662 16.1255 33.6195 16.1255 24.9949C16.1255 16.2702 16.8098 16.1334 24.0298 16.1261V16.1285ZM30.7805 17.9247C30.0631 17.9247 29.4814 18.506 29.4814 19.2228C29.4814 19.9395 30.0631 20.5208 30.7805 20.5208C31.4978 20.5208 32.0795 19.9395 32.0795 19.2228C32.0795 18.506 31.4978 17.9247 30.7805 17.9247V17.9247ZM25.0001 19.4426C21.9291 19.4426 19.4397 21.9312 19.4397 24.9998C19.4397 28.0684 21.9291 30.5558 25.0001 30.5558C28.0712 30.5558 30.5593 28.0684 30.5593 24.9998C30.5593 21.9312 28.0712 19.4426 25.0001 19.4426V19.4426ZM25.0001 21.3927C29.7723 21.3927 29.7784 28.6069 25.0001 28.6069C20.2292 28.6069 20.2218 21.3927 25.0001 21.3927Z" fill="white"/>
</svg>
