<svg width="132" height="73" viewBox="0 0 132 73" fill="none" xmlns="http://www.w3.org/2000/svg">
<path d="M72.0294 5.49814L65.8128 1L59.5513 5.49814M72.0294 5.49814L65.8128 10.3574L59.5513 5.49814M72.0294 5.49814L75.4209 7.92754L83.5918 13.7804M59.5513 5.49814L56.136 7.92754L47.9078 13.7804M47.9078 13.7804H56.136M47.9078 13.7804H0.000427246M47.9078 13.7804H53.2255M83.5918 13.7804H78.3371M83.5918 13.7804H75.4209M83.5918 13.7804H131.562" stroke="white" stroke-width="1.35691"/>
<path d="M59.5328 67.4511L65.7494 71.9492L72.0109 67.4511M59.5328 67.4511L65.7494 62.5919L72.0109 67.4511M59.5328 67.4511L56.1413 65.0217L47.9704 59.1688M72.0109 67.4511L75.4262 65.0217L83.6543 59.1688M83.6543 59.1688L75.4262 59.1688M83.6543 59.1688L131.562 59.1688M83.6543 59.1688L78.3366 59.1688M47.9704 59.1688L53.2251 59.1688M47.9704 59.1688L56.1413 59.1688M47.9704 59.1688L1.25459e-05 59.1688" stroke="white" stroke-width="1.35691"/>
<path d="M14.1237 25.6113C14.908 26.5478 15.0648 27.4219 14.4374 28.6081C13.7786 29.7631 10.767 35.4445 10.767 35.4445C9.19844 32.6663 7.75537 29.8256 7.06521 28.5457C6.40641 27.2346 6.5319 26.6727 7.2848 25.6113H0.000366211C1.1611 26.6727 2.0772 27.9526 2.73599 29.0451C3.39478 30.1689 7.84948 37.7233 7.84948 37.7233V42.5307C7.84948 44.9655 7.8169 46.1205 6.6248 47.338H13.2441C12.3657 45.9957 12.0846 45.028 12.0846 42.7492V37.3799C12.0846 37.3799 15.504 31.2927 16.4765 29.7007C17.449 28.0774 18.4843 26.86 19.8646 25.6113H14.1237Z" fill="white"/>
<path d="M32.2601 25.6113C26.9897 25.6113 22.7689 28.1711 22.7689 36.5059C22.7689 44.8095 27.0185 47.338 32.2888 47.338C37.5592 47.338 41.8112 44.8095 41.8112 36.5059C41.8112 28.296 37.5304 25.6113 32.2601 25.6113ZM38.1721 41.8751C38.1721 43.873 37.5447 45.3401 35.6311 45.3401C30.0156 45.3401 28.0392 41.5942 26.9099 37.4112C26.3452 35.3509 26.0629 33.4467 26.0629 31.8858C26.0001 29.5134 26.6903 28.3272 28.0706 28.3272C35.0977 28.3272 36.5408 31.3552 37.7643 36.0064C38.2662 37.7858 38.1721 40.2519 38.1721 41.8751Z" fill="white"/>
<path d="M60.637 25.6113C61.484 26.7976 61.6644 28.6081 61.6644 29.0451C61.6644 29.0451 61.6644 38.2228 61.6644 40.1582C61.6644 42.0936 61.3507 45.3714 58.7469 45.3714C56.2372 45.3714 53.1629 43.8417 53.1629 40.0021C53.1629 36.1937 53.1001 32.7599 53.0687 29.1388C53.0687 29.1388 53.0464 27.4219 54.1757 25.6113H47.5027C48.632 26.9224 48.5827 28.8578 48.614 29.1076V39.5027C48.7082 43.7169 50.1715 47.338 56.6967 47.338C63.6297 47.338 64.8015 42.3434 64.8015 40.0646C64.8015 37.817 64.8015 29.1388 64.8015 29.1388C64.8015 29.1388 64.8213 27.4219 65.8879 25.6113H60.637Z" fill="white"/>
<path d="M89.5324 47.338C87.6815 45.9332 86.6611 42.8428 85.6572 40.4392L80.0992 25.6113H76.617C76.7739 26.1108 76.833 26.0985 76.833 26.5668C76.833 27.2848 76.6223 28.0774 76.1518 29.3261L71.4775 42.9677C70.7246 44.9968 69.9426 46.0269 68.6877 47.338H74.2091C73.8012 46.7761 73.6421 46.2454 73.6421 45.6523C73.6421 44.9343 73.893 44.0915 74.2381 42.9677L74.7714 40.9698H81.579C81.579 40.9698 82.3946 42.6867 82.9279 44.6534C83.1475 45.6211 82.9445 46.4951 82.1916 47.338H89.5324ZM75.493 38.8783L78.0968 31.8234L80.8261 38.9095L75.493 38.8783Z" fill="white"/>
<path d="M104.252 36.4122C106.134 36.0064 109.115 34.6641 109.115 30.1689C109.115 25.5801 103.323 25.6113 103.323 25.6113H94.2885C95.4179 26.9224 95.4055 28.8266 95.4055 29.1076V43.8105C95.4055 44.0915 95.4102 46.0269 94.2808 47.338H100.806C99.6453 45.8084 99.6093 43.7793 99.6093 43.7793V36.4747C100.613 38.0979 105.786 46.0893 107.072 46.8697C107.668 47.2443 108.641 47.338 109.613 47.338C110.994 47.338 112.342 47.1195 112.342 47.1195C109.739 45.3401 105.413 38.3789 104.252 36.4122ZM100.958 35.3509H99.6093V27.7028H100.958C100.958 27.7028 105.162 27.7028 105.162 30.8869C105.162 35.2884 100.958 35.3509 100.958 35.3509Z" fill="white"/>
<path d="M128.504 44.7782C128.127 45.0592 127.72 45.2153 127.249 45.2465H122.543V37.4424H125.743C125.743 37.4424 127.5 37.4424 129.319 38.5974V34.1646C128.002 35.2884 126.057 35.3197 125.774 35.3509H122.543V27.6716H127.249C127.72 27.7028 128.127 27.8589 128.504 28.1399L130.449 29.6383L131.562 25.6113H117.224C118.353 26.9224 118.34 28.8266 118.34 29.1076V43.8105C118.34 44.0915 118.291 46.0269 117.161 47.338H132L130.386 43.1862L128.504 44.7782Z" fill="white"/>
</svg>
