<svg width="137" height="76" viewBox="0 0 137 76" fill="none" xmlns="http://www.w3.org/2000/svg">
<path d="M74.7578 5.69152L68.3057 1L61.807 5.69152M74.7578 5.69152L68.3057 10.7596L61.807 5.69152M74.7578 5.69152L78.2778 8.22536L86.7581 14.3298M61.807 5.69152L58.2623 8.22536L49.7225 14.3298M49.7225 14.3298H58.2623M49.7225 14.3298H0.000427246M49.7225 14.3298H55.2417M86.7581 14.3298H81.3044M86.7581 14.3298H78.2778M86.7581 14.3298H136.546" stroke="white" stroke-width="1.41525"/>
<path d="M61.7877 70.3085L68.2398 75L74.7384 70.3085M61.7877 70.3085L68.2398 65.2404L74.7384 70.3085M61.7877 70.3085L58.2677 67.7746L49.7874 61.6702M74.7384 70.3085L78.2831 67.7746L86.8229 61.6702M86.8229 61.6702L78.2831 61.6702M86.8229 61.6702L136.545 61.6702M86.8229 61.6702L81.3038 61.6702M49.7874 61.6702L55.2411 61.6702M49.7874 61.6702L58.2677 61.6702M49.7874 61.6702L-0.000125214 61.6702" stroke="white" stroke-width="1.41525"/>
<path d="M14.6587 26.6699C15.4727 27.6467 15.6355 28.5583 14.9843 29.7955C14.3005 31.0002 11.1748 36.9258 11.1748 36.9258C9.54685 34.0281 8.04912 31.0653 7.33281 29.7304C6.64906 28.363 6.7793 27.7769 7.56073 26.6699H0.000366211C1.20506 27.7769 2.15587 29.1118 2.83961 30.2514C3.52336 31.4235 8.1468 39.3026 8.1468 39.3026V44.3166C8.1468 46.8562 8.11298 48.0608 6.87572 49.3306H13.7458C12.8341 47.9306 12.5423 46.9213 12.5423 44.5445V38.9445C12.5423 38.9445 16.0913 32.5956 17.1006 30.9351C18.11 29.242 19.1844 27.9723 20.6171 26.6699H14.6587Z" fill="white"/>
<path d="M33.482 26.6699C28.0121 26.6699 23.6313 29.3397 23.6313 38.0328C23.6313 46.6934 28.0419 49.3306 33.5119 49.3306C38.9818 49.3306 43.3949 46.6934 43.3949 38.0328C43.3949 29.47 38.952 26.6699 33.482 26.6699ZM39.618 43.6329C39.618 45.7166 38.9668 47.2469 36.9807 47.2469C31.1526 47.2469 29.1013 43.3399 27.9292 38.977C27.3431 36.8282 27.0501 34.8421 27.0501 33.2142C26.985 30.7397 27.7013 29.5025 29.1339 29.5025C36.4272 29.5025 37.9249 32.6607 39.1947 37.5119C39.7157 39.3677 39.618 41.9399 39.618 43.6329Z" fill="white"/>
<path d="M62.9338 26.6699C63.8129 27.9071 64.0002 29.7955 64.0002 30.2514C64.0002 30.2514 64.0002 39.8236 64.0002 41.8422C64.0002 43.8608 63.6746 47.2794 60.9722 47.2794C58.3674 47.2794 55.1766 45.6841 55.1766 41.6794C55.1766 37.7073 55.1115 34.1258 55.0789 30.349C55.0789 30.349 55.0557 28.5583 56.2278 26.6699H49.302C50.4742 28.0374 50.4229 30.056 50.4555 30.3165V41.1584C50.5532 45.5538 52.0719 49.3306 58.8443 49.3306C66.0399 49.3306 67.2561 44.1213 67.2561 41.7445C67.2561 39.4003 67.2561 30.349 67.2561 30.349C67.2561 30.349 67.2766 28.5583 68.3836 26.6699H62.9338Z" fill="white"/>
<path d="M92.9238 49.3306C91.0028 47.8655 89.9437 44.6422 88.9018 42.1352L83.1333 26.6699H79.5192C79.682 27.1909 79.7433 27.1781 79.7433 27.6665C79.7433 28.4153 79.5247 29.2421 79.0363 30.5444L74.1849 44.7724C73.4035 46.8887 72.5919 47.9632 71.2895 49.3306H77.02C76.5967 48.7446 76.4315 48.1911 76.4315 47.5725C76.4315 46.8236 76.692 45.9445 77.0502 44.7724L77.6037 42.6887H84.6691C84.6691 42.6887 85.5156 44.4794 86.0691 46.5306C86.297 47.5399 86.0863 48.4515 85.3049 49.3306H92.9238ZM78.3525 40.5073L81.055 33.1491L83.8876 40.5398L78.3525 40.5073Z" fill="white"/>
<path d="M108.201 37.9352C110.155 37.5119 113.248 36.1119 113.248 31.4235C113.248 26.6374 107.237 26.6699 107.237 26.6699H97.86C99.0322 28.0374 99.0194 30.0235 99.0194 30.3165V45.6515C99.0194 45.9445 99.0242 47.9632 97.852 49.3306H104.624C103.42 47.7353 103.382 45.619 103.382 45.619V38.0003C104.424 39.6933 109.793 48.0283 111.128 48.8422C111.746 49.2329 112.756 49.3306 113.765 49.3306C115.198 49.3306 116.598 49.1027 116.598 49.1027C113.895 47.2469 109.406 39.9863 108.201 37.9352ZM104.782 36.8282H103.382V28.8513H104.782C104.782 28.8513 109.145 28.8513 109.145 32.1723C109.145 36.7631 104.782 36.8282 104.782 36.8282Z" fill="white"/>
<path d="M133.371 46.6608C132.981 46.9539 132.557 47.1166 132.069 47.1492H127.185V39.0096H130.506C130.506 39.0096 132.329 39.0096 134.218 40.2143V35.591C132.85 36.7631 130.832 36.7956 130.539 36.8282H127.185V28.8188H132.069C132.557 28.8513 132.981 29.0141 133.371 29.3072L135.39 30.87L136.546 26.6699H121.664C122.836 28.0374 122.822 30.0235 122.822 30.3165V45.6515C122.822 45.9445 122.771 47.9632 121.599 49.3306H137L135.325 45.0003L133.371 46.6608Z" fill="white"/>
</svg>
