<svg width="378" height="34" viewBox="0 0 378 34" fill="none" xmlns="http://www.w3.org/2000/svg">
<path d="M153.602 4.78C153.662 5.12 153.702 5.36 153.722 5.5C153.762 5.62 153.782 5.79 153.782 6.01C153.782 6.67 153.632 7.29 153.332 7.87C153.052 8.43 152.662 8.83 152.162 9.07C151.762 8.53 151.272 8.07 150.692 7.69C150.112 7.29 149.472 6.97 148.772 6.73C148.092 6.47 147.382 6.28 146.642 6.16C145.902 6.04 145.182 5.98 144.482 5.98C143.782 5.98 143.122 6.04 142.502 6.16C141.902 6.26 141.362 6.41 140.882 6.61C140.422 6.79 140.052 7.02 139.772 7.3C139.512 7.58 139.382 7.9 139.382 8.26C139.442 8.7 139.712 9.15 140.192 9.61C140.672 10.05 141.262 10.49 141.962 10.93C142.662 11.35 143.432 11.77 144.272 12.19C145.132 12.61 145.972 13.01 146.792 13.39C147.812 13.87 148.692 14.32 149.432 14.74C150.172 15.14 150.782 15.59 151.262 16.09C151.742 16.57 152.102 17.12 152.342 17.74C152.582 18.36 152.702 19.11 152.702 19.99C152.702 21.01 152.532 21.97 152.192 22.87C151.852 23.75 151.352 24.52 150.692 25.18C150.052 25.84 149.272 26.35 148.352 26.71C147.432 27.09 146.402 27.28 145.262 27.28C144.142 27.28 142.932 27.11 141.632 26.77C140.332 26.43 139.112 25.96 137.972 25.36C136.852 24.78 135.912 24.11 135.152 23.35C134.412 22.57 134.042 21.75 134.042 20.89C134.042 20.49 134.152 19.98 134.372 19.36C134.612 18.74 135.032 18.09 135.632 17.41C135.692 18.01 136.012 18.72 136.592 19.54C137.192 20.36 138.082 21.12 139.262 21.82C140.362 22.46 141.492 22.93 142.652 23.23C143.832 23.51 144.932 23.65 145.952 23.65C147.072 23.65 147.982 23.51 148.682 23.23C149.382 22.95 149.932 22.62 150.332 22.24C150.732 21.84 151.012 21.44 151.172 21.04C151.332 20.64 151.422 20.32 151.442 20.08C151.422 19.68 151.232 19.3 150.872 18.94C150.532 18.56 150.062 18.2 149.462 17.86C148.882 17.5 148.202 17.14 147.422 16.78C146.642 16.42 145.832 16.06 144.992 15.7C143.732 15.14 142.642 14.62 141.722 14.14C140.822 13.64 140.072 13.14 139.472 12.64C138.892 12.12 138.462 11.58 138.182 11.02C137.922 10.46 137.792 9.82 137.792 9.1C137.792 7.98 138.132 6.92 138.812 5.92C139.492 4.92 140.472 4.16 141.752 3.64C142.392 3.36 143.072 3.16 143.792 3.04C144.532 2.92 145.252 2.86 145.952 2.86C147.272 2.86 148.562 3.04 149.822 3.4C151.082 3.76 152.342 4.22 153.602 4.78ZM159.88 26.05C158.74 25.93 157.83 25.43 157.15 24.55C156.47 23.67 156.13 22.55 156.13 21.19C156.13 20.39 156.25 19.56 156.49 18.7C156.73 17.84 157.07 17.01 157.51 16.21C157.95 15.39 158.47 14.62 159.07 13.9C159.67 13.18 160.32 12.56 161.02 12.04C162.12 11.22 163.15 10.81 164.11 10.81C164.75 11.15 165.38 11.86 166 12.94C166.1 12.94 166.19 12.94 166.27 12.94C166.35 12.92 166.44 12.91 166.54 12.91C167.6 12.91 168.13 13.85 168.13 15.73C168.13 16.99 167.92 18.19 167.5 19.33C167.1 20.45 166.53 21.47 165.79 22.39C165.07 23.31 164.2 24.09 163.18 24.73C162.18 25.35 161.08 25.79 159.88 26.05ZM161.41 16.6C161.07 17.06 160.75 17.56 160.45 18.1C160.15 18.64 159.89 19.19 159.67 19.75C159.45 20.29 159.28 20.82 159.16 21.34C159.04 21.84 158.98 22.29 158.98 22.69C158.98 23.17 159.06 23.63 159.22 24.07C159.38 24.51 159.56 24.76 159.76 24.82C160.66 24.62 161.48 24.25 162.22 23.71C162.98 23.15 163.63 22.46 164.17 21.64C164.73 20.82 165.16 19.89 165.46 18.85C165.78 17.81 165.94 16.7 165.94 15.52C165.94 15 165.91 14.59 165.85 14.29C165.79 13.99 165.69 13.73 165.55 13.51C164.67 13.77 163.88 14.19 163.18 14.77C162.5 15.35 161.91 15.96 161.41 16.6ZM172.292 33.67C171.792 33.47 171.492 33.09 171.392 32.53C171.312 31.99 170.972 31.55 170.372 31.21C170.532 30.19 170.712 29.16 170.912 28.12C171.112 27.08 171.362 25.9 171.662 24.58C171.982 23.24 172.372 21.69 172.832 19.93C173.312 18.15 173.912 16 174.632 13.48C173.972 13.48 173.452 13.49 173.072 13.51C172.692 13.53 172.322 13.57 171.962 13.63C171.882 13.55 171.812 13.44 171.752 13.3C171.712 13.16 171.692 13.03 171.692 12.91C171.892 12.83 172.302 12.73 172.922 12.61C173.542 12.47 174.222 12.35 174.962 12.25C175.442 10.73 175.992 9.37 176.612 8.17C177.232 6.95 177.902 5.91 178.622 5.05C179.342 4.19 180.102 3.53 180.902 3.07C181.702 2.61 182.512 2.38 183.332 2.38C183.572 2.38 183.802 2.4 184.022 2.44C184.242 2.46 184.412 2.47 184.532 2.47C184.712 2.33 184.952 2.21 185.252 2.11C185.552 1.99 185.812 1.93 186.032 1.93C186.272 1.93 186.582 2.06 186.962 2.32C186.802 2.6 186.632 2.98 186.452 3.46C186.272 3.94 186.122 4.41 186.002 4.87C185.502 6.35 184.972 7.31 184.412 7.75C184.192 7.75 184.072 7.46 184.052 6.88C184.032 6.46 183.972 6.05 183.872 5.65C183.792 5.47 183.732 5.31 183.692 5.17C183.672 5.03 183.662 4.85 183.662 4.63C183.662 4.51 183.672 4.37 183.692 4.21C183.712 4.03 183.752 3.74 183.812 3.34C183.472 3.34 183.092 3.55 182.672 3.97C182.272 4.39 181.842 4.99 181.382 5.77C180.942 6.53 180.492 7.44 180.032 8.5C179.572 9.56 179.132 10.73 178.712 12.01L181.232 11.92C181.332 12.02 181.412 12.25 181.472 12.61C181.552 12.95 181.602 13.31 181.622 13.69L178.322 13.51C177.562 15.77 176.852 17.93 176.192 19.99C175.532 22.05 174.942 23.95 174.422 25.69C173.902 27.43 173.452 28.98 173.072 30.34C172.712 31.72 172.452 32.83 172.292 33.67ZM184.166 13.51C184.066 13.39 183.976 13.14 183.896 12.76C183.816 12.36 183.776 12.02 183.776 11.74C184.296 11.78 184.796 11.82 185.276 11.86C185.756 11.88 186.196 11.9 186.596 11.92C186.896 11.32 187.216 10.73 187.556 10.15C187.916 9.55 188.256 9.01 188.576 8.53C188.916 8.03 189.226 7.61 189.506 7.27C189.806 6.93 190.036 6.71 190.196 6.61C190.396 6.61 190.646 6.65 190.946 6.73C191.266 6.79 191.586 6.88 191.906 7C192.226 7.1 192.516 7.21 192.776 7.33C193.036 7.45 193.216 7.57 193.316 7.69C192.716 8.45 192.196 9.16 191.756 9.82C191.336 10.46 190.876 11.2 190.376 12.04C190.776 12.04 191.176 12.03 191.576 12.01C191.996 11.99 192.416 11.96 192.836 11.92C192.936 12.02 193.016 12.15 193.076 12.31C193.136 12.45 193.166 12.6 193.166 12.76C192.186 13.12 190.996 13.32 189.596 13.36C189.096 14.32 188.646 15.28 188.246 16.24C187.866 17.18 187.536 18.09 187.256 18.97C186.996 19.85 186.786 20.68 186.626 21.46C186.486 22.24 186.416 22.94 186.416 23.56C186.416 24.44 186.746 24.93 187.406 25.03C188.006 24.95 188.576 24.8 189.116 24.58C189.656 24.36 190.136 24.08 190.556 23.74C190.676 23.92 190.746 24.07 190.766 24.19C190.646 24.37 190.436 24.58 190.136 24.82C189.856 25.06 189.546 25.29 189.206 25.51C188.866 25.75 188.536 25.95 188.216 26.11C187.896 26.27 187.656 26.36 187.496 26.38C186.996 26.36 186.496 26.25 185.996 26.05C185.496 25.85 185.036 25.6 184.616 25.3C184.216 25 183.886 24.67 183.626 24.31C183.366 23.93 183.236 23.56 183.236 23.2C183.236 22.72 183.296 22.12 183.416 21.4C183.556 20.66 183.746 19.86 183.986 19C184.226 18.14 184.506 17.24 184.826 16.3C185.146 15.36 185.496 14.43 185.876 13.51H184.166ZM203.062 23.08C203.062 22.2 203.272 20.97 203.692 19.39C204.112 17.79 204.702 15.93 205.462 13.81C206.702 10.43 207.862 7.62 208.942 5.38C210.042 3.12 211.112 1.36 212.152 0.0999987C212.392 0.139998 212.682 0.239998 213.022 0.399998C213.382 0.559999 213.732 0.739999 214.072 0.939999C214.412 1.12 214.712 1.31 214.972 1.51C215.252 1.71 215.432 1.87 215.512 1.99C213.952 3.83 212.582 5.81 211.402 7.93C210.222 10.05 209.142 12.48 208.162 15.22C207.322 17.58 206.682 19.71 206.242 21.61C205.802 23.49 205.582 25.06 205.582 26.32C205.582 26.66 205.582 26.87 205.582 26.95C205.582 27.03 205.592 27.11 205.612 27.19C205.332 27.15 205.092 27.08 204.892 26.98C204.692 26.88 204.562 26.76 204.502 26.62C204.462 26.52 204.352 26.37 204.172 26.17C203.992 25.99 203.832 25.85 203.692 25.75C203.512 25.63 203.362 25.32 203.242 24.82C203.122 24.3 203.062 23.72 203.062 23.08ZM211.711 22.99C211.711 22.81 211.721 22.59 211.741 22.33C211.781 22.05 211.841 21.69 211.921 21.25C212.001 20.79 212.101 20.24 212.221 19.6C212.361 18.96 212.531 18.19 212.731 17.29C212.771 17.09 212.861 16.77 213.001 16.33C213.141 15.89 213.321 15.43 213.541 14.95C213.781 14.45 214.061 13.97 214.381 13.51C214.721 13.05 215.121 12.71 215.581 12.49C215.921 12.57 216.371 12.78 216.931 13.12C217.491 13.44 217.971 13.89 218.371 14.47C217.911 14.99 217.521 15.51 217.201 16.03C216.901 16.55 216.621 17.09 216.361 17.65C216.121 18.21 215.891 18.79 215.671 19.39C215.471 19.99 215.241 20.62 214.981 21.28C214.761 21.84 214.561 22.42 214.381 23.02C214.201 23.6 214.101 24.11 214.081 24.55C214.081 24.91 214.071 25.16 214.051 25.3C214.051 25.46 214.001 25.54 213.901 25.54C213.821 25.54 213.661 25.49 213.421 25.39C213.181 25.29 212.931 25.14 212.671 24.94C212.431 24.72 212.211 24.45 212.011 24.13C211.811 23.81 211.711 23.43 211.711 22.99ZM217.441 9.97C217.441 9.85 217.471 9.67 217.531 9.43C217.431 9.33 217.341 9.18 217.261 8.98C217.201 8.78 217.171 8.6 217.171 8.44C217.171 8.26 217.191 8.02 217.231 7.72C217.291 7.4 217.361 7.06 217.441 6.7C217.521 6.34 217.621 5.97 217.741 5.59C217.861 5.19 217.981 4.83 218.101 4.51C218.341 4.51 218.631 4.58 218.971 4.72C219.331 4.84 219.691 5.01 220.051 5.23C220.411 5.43 220.741 5.66 221.041 5.92C221.341 6.16 221.571 6.39 221.731 6.61C221.511 6.83 221.221 7.14 220.861 7.54C220.501 7.92 220.151 8.33 219.811 8.77C219.471 9.19 219.161 9.59 218.881 9.97C218.601 10.35 218.421 10.62 218.341 10.78C218.101 10.74 217.891 10.64 217.711 10.48C217.531 10.3 217.441 10.13 217.441 9.97ZM225.131 10.45C225.651 10.61 226.141 10.97 226.601 11.53C227.061 12.07 227.401 12.67 227.621 13.33C227.401 13.87 227.061 14.52 226.601 15.28C226.141 16.04 225.681 16.82 225.221 17.62C224.761 18.4 224.341 19.15 223.961 19.87C223.601 20.57 223.391 21.15 223.331 21.61C223.651 21.27 224.001 20.88 224.381 20.44C224.781 19.98 225.161 19.53 225.521 19.09C225.901 18.63 226.251 18.22 226.571 17.86C226.891 17.48 227.141 17.2 227.321 17.02C227.701 16.62 228.151 16.16 228.671 15.64C229.191 15.1 229.731 14.6 230.291 14.14C230.871 13.66 231.451 13.26 232.031 12.94C232.611 12.6 233.141 12.43 233.621 12.43C234.141 12.43 234.571 12.61 234.911 12.97C235.271 13.31 235.551 13.67 235.751 14.05C235.751 14.09 235.671 14.15 235.511 14.23C235.371 14.29 235.161 14.48 234.881 14.8C234.601 15.16 234.281 15.66 233.921 16.3C233.581 16.92 233.241 17.6 232.901 18.34C232.581 19.06 232.311 19.8 232.091 20.56C231.871 21.32 231.761 22.01 231.761 22.63C231.761 23.13 231.821 23.45 231.941 23.59C232.081 23.73 232.271 23.8 232.511 23.8C232.731 23.8 232.961 23.75 233.201 23.65C233.441 23.55 233.631 23.5 233.771 23.5C233.851 23.54 233.911 23.63 233.951 23.77C234.011 23.89 234.041 24 234.041 24.1C233.881 24.24 233.691 24.38 233.471 24.52C233.251 24.66 233.021 24.79 232.781 24.91C232.541 25.03 232.301 25.13 232.061 25.21C231.841 25.29 231.641 25.33 231.461 25.33C230.881 25.33 230.401 25.24 230.021 25.06C229.661 24.9 229.371 24.68 229.151 24.4C228.951 24.12 228.811 23.79 228.731 23.41C228.651 23.01 228.611 22.59 228.611 22.15C228.611 21.91 228.631 21.64 228.671 21.34C228.711 21.04 228.791 20.69 228.911 20.29C229.031 19.87 229.201 19.38 229.421 18.82C229.641 18.24 229.921 17.55 230.261 16.75C230.221 16.75 229.951 16.89 229.451 17.17C228.951 17.45 228.411 17.88 227.831 18.46C226.891 19.36 226.041 20.25 225.281 21.13C224.541 22.01 223.781 22.99 223.001 24.07C222.561 24.69 222.171 25.21 221.831 25.63C221.511 26.07 221.231 26.36 220.991 26.5C220.571 26.26 220.261 25.92 220.061 25.48C219.861 25.06 219.711 24.62 219.611 24.16C219.611 23.78 219.661 23.3 219.761 22.72C219.881 22.14 220.031 21.5 220.211 20.8C220.411 20.08 220.651 19.33 220.931 18.55C221.211 17.77 221.521 16.99 221.861 16.21C222.621 14.45 223.311 13.07 223.931 12.07C224.571 11.07 224.971 10.53 225.131 10.45ZM248.713 12.58C248.633 13.82 248.413 14.89 248.053 15.79C247.693 16.67 247.173 17.45 246.493 18.13C245.833 18.79 245.023 19.39 244.063 19.93C243.103 20.47 241.983 20.99 240.703 21.49C240.703 21.61 240.693 21.74 240.673 21.88C240.673 22 240.673 22.13 240.673 22.27C240.673 22.53 240.693 22.8 240.733 23.08C240.773 23.36 240.843 23.62 240.943 23.86C241.043 24.1 241.183 24.3 241.363 24.46C241.543 24.6 241.773 24.67 242.053 24.67C242.593 24.67 243.123 24.55 243.643 24.31C244.163 24.07 244.653 23.78 245.113 23.44C245.593 23.08 246.033 22.7 246.433 22.3C246.853 21.88 247.223 21.5 247.543 21.16C247.743 21.34 247.913 21.51 248.053 21.67C247.153 22.87 246.163 23.87 245.083 24.67C244.023 25.45 243.013 25.95 242.053 26.17C240.673 26.01 239.593 25.51 238.812 24.67C238.053 23.81 237.673 22.78 237.673 21.58C237.673 20.76 237.783 19.93 238.003 19.09C238.243 18.23 238.563 17.41 238.963 16.63C239.383 15.83 239.863 15.08 240.403 14.38C240.963 13.68 241.553 13.07 242.173 12.55C242.813 12.03 243.463 11.62 244.123 11.32C244.803 11.02 245.473 10.87 246.133 10.87C247.053 10.99 247.913 11.56 248.713 12.58ZM246.643 13.57C246.103 13.65 245.543 13.87 244.963 14.23C244.383 14.59 243.833 15.07 243.313 15.67C242.813 16.27 242.353 16.97 241.933 17.77C241.513 18.57 241.183 19.43 240.943 20.35C242.543 19.55 243.873 18.57 244.933 17.41C245.993 16.23 246.563 14.95 246.643 13.57Z" fill="white"/>
<rect y="15" width="110" height="1" fill="url(#paint0_linear_1512_18)"/>
<rect width="110" height="1" transform="matrix(-1 0 0 1 378 15)" fill="url(#paint1_linear_1512_18)"/>
<defs>
<linearGradient id="paint0_linear_1512_18" x1="110" y1="14.9999" x2="0" y2="15" gradientUnits="userSpaceOnUse">
<stop stop-color="white"/>
<stop offset="1" stop-color="white" stop-opacity="0"/>
</linearGradient>
<linearGradient id="paint1_linear_1512_18" x1="110" y1="-6.0536e-05" x2="0" y2="1.26855e-05" gradientUnits="userSpaceOnUse">
<stop stop-color="white"/>
<stop offset="1" stop-color="white" stop-opacity="0"/>
</linearGradient>
</defs>
</svg>
