<svg width="164" height="164" viewBox="0 0 164 164" fill="none" xmlns="http://www.w3.org/2000/svg">
<rect x="3.08698" y="81.7578" width="111.744" height="111.744" transform="rotate(-45 3.08698 81.7578)" stroke="white" stroke-width="3.66821"/>
<rect x="2.59421" width="27.4716" height="27.4716" transform="matrix(0.707215 -0.706999 0.707215 0.706999 60.8777 23.8497)" stroke="white" stroke-width="3.66821"/>
<rect x="2.59421" width="27.4716" height="27.4716" transform="matrix(0.707215 -0.706999 0.707215 0.706999 60.8777 142.986)" stroke="white" stroke-width="3.66821"/>
<rect x="2.59421" width="27.4716" height="27.4716" transform="matrix(0.707215 -0.706999 0.707215 0.706999 120.403 83.6427)" stroke="white" stroke-width="3.66821"/>
<rect x="2.59421" width="27.4716" height="27.4716" transform="matrix(0.707215 -0.706999 0.707215 0.706999 1.25271 83.6427)" stroke="white" stroke-width="3.66821"/>
<rect x="44.836" y="44.3282" width="74.3873" height="74.3873" stroke="white" stroke-width="3.64461"/>
<path d="M82.2634 43.9023V43.9023C82.2634 65.0632 99.4177 82.2174 120.579 82.2174V82.2174" stroke="white" stroke-width="3.73806"/>
<path d="M82.2632 120.531V120.531C82.2632 99.3704 65.1089 82.2162 43.9481 82.2162V82.2162" stroke="white" stroke-width="3.73806"/>
<path d="M82.2634 43.9023V43.9023C82.2634 65.0632 65.1092 82.2174 43.9483 82.2174V82.2174" stroke="white" stroke-width="3.73806"/>
<path d="M82.2632 120.531V120.531C82.2632 99.3704 99.4174 82.2162 120.578 82.2162V82.2162" stroke="white" stroke-width="3.73806"/>
</svg>
