<svg width="50" height="50" viewBox="0 0 50 50" fill="none" xmlns="http://www.w3.org/2000/svg">
<circle cx="25" cy="25" r="25" fill="#838485" fill-opacity="0.2"/>
<path d="M25.4878 27.6182C26.1323 28.0721 26.8079 28.4538 27.5043 28.7427C27.9367 28.8995 28.6153 28.4555 29.1142 28.1289L29.1142 28.1289C29.239 28.0473 29.3524 27.973 29.448 27.9173L29.4794 27.8997C29.9494 27.6358 30.4713 27.3427 31.1423 27.484C31.7452 27.6078 33.8136 29.2379 34.3853 29.8157C34.7595 30.1871 34.9674 30.5791 34.9986 30.9815C35.0609 32.4775 33.0549 34.1591 32.5767 34.448C31.5581 35.1908 30.1964 35.1805 28.5541 34.4377C26.7975 33.7258 24.6979 32.2299 22.671 30.4141C21.9454 29.7641 20.5521 28.3955 20.1556 27.9385C18.1079 25.7203 16.3824 23.3371 15.5717 21.4078C15.1871 20.5928 15 19.8396 15 19.169C15 18.5087 15.1871 17.9207 15.5509 17.4151C15.7692 17.0334 17.5258 14.9494 19.0745 15.0009C19.4591 15.0422 19.8541 15.2382 20.2387 15.6096C20.8208 16.1771 22.4943 18.2302 22.619 18.8389C22.7613 19.4947 22.4662 20.0124 22.2004 20.4787L22.2004 20.4787L22.1824 20.5102C22.1225 20.6137 22.0413 20.7365 21.9525 20.8708C21.6253 21.3654 21.1953 22.0154 21.3499 22.4292C21.7355 23.3784 22.2864 24.3069 22.9506 25.1632C23.6877 26.0445 24.8434 27.1642 25.4878 27.6182Z" stroke="white" stroke-width="1.5"/>
</svg>
