<svg width="311" height="109" viewBox="0 0 311 109" fill="none" xmlns="http://www.w3.org/2000/svg">
<g clip-path="url(#clip0_706_36)">
<path d="M35.6607 48.4187V60.4264C35.6607 60.4264 35.6607 61.8602 36.608 63.3451H31.5386C32.4347 62.321 32.5115 60.8616 32.5115 60.5032V55.229H26.6741V60.4264C26.6741 60.4264 26.6741 61.8602 27.6214 63.3451H22.5776C23.4993 62.2698 23.5249 60.6568 23.5249 60.452V48.3931C23.5249 48.1883 23.4993 46.5753 22.5776 45.5H27.6214C26.6741 46.985 26.6741 48.4187 26.6741 48.4187V53.5137H32.5115V48.3419C32.5115 47.9835 32.4347 46.4985 31.5386 45.5H36.608C35.6607 46.985 35.6607 48.4187 35.6607 48.4187Z" fill="white" fill-opacity="0.85"/>
<path d="M50.4098 45.168C54.711 45.168 58.193 47.7282 58.193 54.4618C58.193 61.2721 54.711 63.6787 50.4098 63.6787C46.1085 63.6787 42.6521 61.2721 42.6521 54.4618C42.6521 47.6258 46.1085 45.168 50.4098 45.168ZM55.2231 58.8654C55.2231 57.5341 55.2999 55.5115 54.8902 54.0521C53.8917 50.2373 52.714 47.7538 46.979 47.7538C45.8525 47.7538 45.2892 48.7267 45.3404 50.6726C45.3404 51.9527 45.5708 53.5145 46.0317 55.2042C46.9534 58.635 48.5664 61.7073 53.1492 61.7073C54.711 61.7073 55.2231 60.504 55.2231 58.8654Z" fill="white" fill-opacity="0.85"/>
<path d="M72.0822 45.168C76.3834 45.168 79.8654 47.7282 79.8654 54.4618C79.8654 61.2721 76.3834 63.6787 72.0822 63.6787C67.7809 63.6787 64.3245 61.2721 64.3245 54.4618C64.3245 47.6258 67.7809 45.168 72.0822 45.168ZM76.8955 58.8654C76.8955 57.5341 76.9723 55.5115 76.5626 54.0521C75.5641 50.2373 74.3864 47.7538 68.6514 47.7538C67.5249 47.7538 66.9616 48.7267 67.0128 50.6726C67.0128 51.9527 67.2432 53.5145 67.7041 55.2042C68.6258 58.635 70.2388 61.7073 74.8217 61.7073C76.3834 61.7073 76.8955 60.504 76.8955 58.8654Z" fill="white" fill-opacity="0.85"/>
<path d="M246.995 61.7073C247.942 61.7073 248.915 61.5793 249.862 61.5281C248.454 63.0387 246.457 63.6787 244.255 63.6787C239.954 63.6787 236.498 61.2721 236.498 54.4618C236.498 47.6258 239.954 45.168 244.255 45.168C246.406 45.168 248.377 45.808 249.76 47.293L247.02 50.6726C246.047 48.8804 244.434 47.7538 240.824 47.7538C239.698 47.7538 239.135 48.7267 239.186 50.6982C239.186 51.9527 239.416 53.5401 239.877 55.2042C240.799 58.635 242.412 61.7073 246.995 61.7073Z" fill="white" fill-opacity="0.85"/>
<path d="M265.117 61.7073C266.064 61.7073 267.037 61.5793 267.984 61.5281C266.576 63.0387 264.579 63.6787 262.377 63.6787C258.076 63.6787 254.62 61.2721 254.62 54.4618C254.62 47.6258 258.076 45.168 262.377 45.168C264.528 45.168 266.499 45.808 267.882 47.293L265.142 50.6726C264.169 48.8804 262.556 47.7538 258.946 47.7538C257.82 47.7538 257.257 48.7267 257.308 50.6982C257.308 51.9527 257.538 53.5401 257.999 55.2042C258.921 58.635 260.534 61.7073 265.117 61.7073Z" fill="white" fill-opacity="0.85"/>
<path d="M280.499 45.168C284.8 45.168 288.282 47.7282 288.282 54.4618C288.282 61.2721 284.8 63.6787 280.499 63.6787C276.198 63.6787 272.741 61.2721 272.741 54.4618C272.741 47.6258 276.198 45.168 280.499 45.168ZM285.312 58.8654C285.312 57.5341 285.389 55.5115 284.98 54.0521C283.981 50.2373 282.803 47.7538 277.068 47.7538C275.942 47.7538 275.379 48.7267 275.43 50.6726C275.43 51.9527 275.66 53.5145 276.121 55.2042C277.043 58.635 278.656 61.7073 283.239 61.7073C284.8 61.7073 285.312 60.504 285.312 58.8654Z" fill="white" fill-opacity="0.85"/>
</g>
<path d="M93.2167 52.7968C93.2167 52.7968 97.4924 60.5544 101.026 63.3195C101.026 63.3195 100.232 63.4731 99.2334 63.4731C98.3885 63.4731 97.4156 63.3707 96.6219 62.9611C95.1369 62.2442 90.8357 55.8179 89.9908 54.5122V60.4264C89.9908 60.4264 89.9908 61.8602 90.9381 63.3451H85.8943C86.8416 62.2698 86.8416 60.6824 86.8416 60.4264V48.3931C86.8416 48.1627 86.816 46.5753 85.8943 45.5H90.9381C89.9908 46.985 89.9908 48.4187 89.9908 48.4187V53.5137C90.1444 53.36 92.2694 51.3374 94.9065 48.2139C95.1625 47.9323 95.2393 47.7018 95.2393 47.497C95.1113 46.7545 94.8041 46.0889 94.3432 45.5L99.4638 45.5256C96.1354 48.982 94.9833 50.4669 93.2167 52.7968Z" fill="white" fill-opacity="0.85"/>
<path d="M123.223 63.3457H117.233C117.847 62.6544 118.052 61.9376 117.873 61.1439C117.437 59.5309 116.772 58.1228 116.772 58.1228H111.216L110.781 59.7613C110.499 60.683 110.294 61.3743 110.294 61.9632C110.294 62.4496 110.448 62.8849 110.781 63.3457H106.275C107.299 62.2704 107.913 61.4255 108.528 59.7613L112.343 48.5729C112.727 47.5488 112.88 46.9087 112.88 46.3199C112.88 45.9358 112.829 45.603 112.701 45.1934H115.543L120.1 57.6875C120.919 59.6589 121.713 62.1936 123.223 63.3457ZM111.805 56.4074L116.157 56.433L113.93 50.6211L111.805 56.4074Z" fill="white" fill-opacity="0.85"/>
<path d="M141.472 48.4187V60.4264C141.472 60.4264 141.472 61.8602 142.419 63.3451H137.35C138.246 62.321 138.322 60.8616 138.322 60.5032V55.229H132.485V60.4264C132.485 60.4264 132.485 61.8602 133.432 63.3451H128.389C129.31 62.2698 129.336 60.6568 129.336 60.452V48.3931C129.336 48.1883 129.31 46.5753 128.389 45.5H133.432C132.485 46.985 132.485 48.4187 132.485 48.4187V53.5137H138.322V48.3419C138.322 47.9835 138.246 46.4985 137.35 45.5H142.419C141.472 46.985 141.472 48.4187 141.472 48.4187Z" fill="white" fill-opacity="0.85"/>
<path d="M156.666 45.5H171.925L170.594 48.8028L169.007 47.5994C168.699 47.369 168.366 47.241 167.957 47.2154H165.934V60.4264C165.934 60.4264 165.934 61.8602 166.882 63.3195H161.531C162.478 62.2698 162.503 60.6568 162.503 60.452V47.2154H160.532C160.148 47.241 159.815 47.369 159.482 47.5994L157.921 48.8028L156.666 45.5Z" fill="white" fill-opacity="0.85"/>
<path d="M183.964 45.168C188.265 45.168 191.747 47.7282 191.747 54.4618C191.747 61.2721 188.265 63.6787 183.964 63.6787C179.662 63.6787 176.206 61.2721 176.206 54.4618C176.206 47.6258 179.662 45.168 183.964 45.168ZM188.777 58.8654C188.777 57.5341 188.854 55.5115 188.444 54.0521C187.446 50.2373 186.268 47.7538 180.533 47.7538C179.406 47.7538 178.843 48.7267 178.894 50.6726C178.894 51.9527 179.125 53.5145 179.586 55.2042C180.507 58.635 182.12 61.7073 186.703 61.7073C188.265 61.7073 188.777 60.504 188.777 58.8654Z" fill="white" fill-opacity="0.85"/>
<path d="M207.505 53.8465C207.505 53.8465 211.243 54.6402 211.243 58.4038C211.243 62.705 206.379 63.3451 203.05 63.3451H197.776C198.698 62.2698 198.723 60.6824 198.723 60.452V48.3931C198.723 48.1627 198.698 46.5753 197.776 45.5H205.15C205.15 45.5 209.912 45.5256 209.912 49.4172C209.912 52.4895 208.324 53.3344 207.505 53.8465ZM202.154 47.2154V53.5393C202.154 53.5393 206.686 54.1281 206.686 49.5964C206.686 46.9338 202.513 47.2154 202.154 47.2154ZM207.761 58.5062C207.735 54.6146 204.663 54.589 202.154 54.589V61.4505C202.154 61.4505 202.154 61.4505 202.18 61.4505C202.538 61.4505 203.101 61.5017 203.716 61.5017C205.482 61.5017 207.761 61.1433 207.761 58.5062Z" fill="white" fill-opacity="0.85"/>
<path d="M232.655 63.3457H226.664C227.279 62.6544 227.483 61.9376 227.304 61.1439C226.869 59.5309 226.203 58.1228 226.203 58.1228H220.647L220.212 59.7613C219.931 60.683 219.726 61.3743 219.726 61.9632C219.726 62.4496 219.879 62.8849 220.212 63.3457H215.706C216.73 62.2704 217.345 61.4255 217.959 59.7613L221.774 48.5729C222.158 47.5488 222.312 46.9087 222.312 46.3199C222.312 45.9358 222.26 45.603 222.132 45.1934H224.974L229.532 57.6875C230.351 59.6589 231.145 62.1936 232.655 63.3457ZM221.236 56.4074L225.589 56.433L223.361 50.6211L221.236 56.4074Z" fill="white" fill-opacity="0.85"/>
<path d="M311 1L6.47663e-05 1.00001M311 108L-8.91198e-07 108" stroke="url(#paint0_linear_706_36)" stroke-opacity="0.5"/>
<defs>
<linearGradient id="paint0_linear_706_36" x1="377.941" y1="0.999999" x2="-4.71791" y2="0.999997" gradientUnits="userSpaceOnUse">
<stop offset="0.178237" stop-color="white" stop-opacity="0"/>
<stop offset="0.505125" stop-color="white"/>
<stop offset="1" stop-color="white" stop-opacity="0"/>
</linearGradient>
<clipPath id="clip0_706_36">
<rect width="267" height="19" fill="white" transform="translate(22.0002 45)"/>
</clipPath>
</defs>
</svg>
