<svg width="311" height="95" viewBox="0 0 311 95" fill="none" xmlns="http://www.w3.org/2000/svg">
<g clip-path="url(#clip0_831_334)">
<path d="M311 1L6.56575e-05 1.00001M311 94H0" stroke="url(#paint0_linear_831_334)" stroke-opacity="0.5"/>
<path d="M30.4415 51.8855V41.0801L31.2515 41.89H26.4838V39H37.9703V41.89H33.2211L34.031 41.0801V51.8855H30.4415Z" fill="white" fill-opacity="0.85"/>
<path d="M42.9318 51.8855V41.9084H46.4109V45.3507H49.3009V48.296H46.4109V51.8855H42.9318ZM52.7248 52.0512C51.6694 52.0512 50.7306 51.8303 49.9084 51.3885C49.0862 50.9467 48.4419 50.3392 47.9756 49.5661C47.5092 48.7807 47.2761 47.8849 47.2761 46.8786C47.2761 45.8723 47.5092 44.9826 47.9756 44.2094C48.4419 43.4363 49.0862 42.835 49.9084 42.4055C50.7306 41.9637 51.6694 41.7428 52.7248 41.7428C53.7802 41.7428 54.719 41.9637 55.5412 42.4055C56.3634 42.835 57.0077 43.4363 57.474 44.2094C57.9404 44.9826 58.1735 45.8723 58.1735 46.8786C58.1735 47.8849 57.9404 48.7807 57.474 49.5661C57.0077 50.3392 56.3634 50.9467 55.5412 51.3885C54.719 51.8303 53.7802 52.0512 52.7248 52.0512ZM52.7248 49.2716C53.1052 49.2716 53.4427 49.1795 53.7372 48.9955C54.044 48.8114 54.2833 48.5414 54.4551 48.1855C54.6392 47.8174 54.7313 47.3878 54.7313 46.897C54.7313 46.3815 54.6392 45.952 54.4551 45.6084C54.2833 45.2525 54.044 44.9826 53.7372 44.7985C53.4427 44.6144 53.1052 44.5224 52.7248 44.5224C52.3566 44.5224 52.0192 44.6144 51.7124 44.7985C51.4056 44.9826 51.1601 45.2525 50.9761 45.6084C50.8042 45.952 50.7183 46.3815 50.7183 46.897C50.7183 47.3878 50.8042 47.8174 50.9761 48.1855C51.1601 48.5414 51.4056 48.8114 51.7124 48.9955C52.0192 49.1795 52.3566 49.2716 52.7248 49.2716Z" fill="white" fill-opacity="0.85"/>
<path d="M65.379 51.8855V43.9149L66.1338 44.688H62.1577V41.9084H72.0611V44.688H68.085L68.8581 43.9149V51.8855H65.379Z" fill="white" fill-opacity="0.85"/>
<path d="M77.0978 51.8855V41.9084H80.5769V45.3507H83.4669V48.296H80.5769V51.8855H77.0978ZM86.8908 52.0512C85.8354 52.0512 84.8966 51.8303 84.0744 51.3885C83.2522 50.9467 82.6079 50.3392 82.1416 49.5661C81.6752 48.7807 81.4421 47.8849 81.4421 46.8786C81.4421 45.8723 81.6752 44.9826 82.1416 44.2094C82.6079 43.4363 83.2522 42.835 84.0744 42.4055C84.8966 41.9637 85.8354 41.7428 86.8908 41.7428C87.9462 41.7428 88.885 41.9637 89.7072 42.4055C90.5294 42.835 91.1737 43.4363 91.64 44.2094C92.1063 44.9826 92.3395 45.8723 92.3395 46.8786C92.3395 47.8849 92.1063 48.7807 91.64 49.5661C91.1737 50.3392 90.5294 50.9467 89.7072 51.3885C88.885 51.8303 87.9462 52.0512 86.8908 52.0512ZM86.8908 49.2716C87.2712 49.2716 87.6087 49.1795 87.9032 48.9955C88.21 48.8114 88.4493 48.5414 88.6211 48.1855C88.8052 47.8174 88.8972 47.3878 88.8972 46.897C88.8972 46.3815 88.8052 45.952 88.6211 45.6084C88.4493 45.2525 88.21 44.9826 87.9032 44.7985C87.6087 44.6144 87.2712 44.5224 86.8908 44.5224C86.5226 44.5224 86.1851 44.6144 85.8784 44.7985C85.5716 44.9826 85.3261 45.2525 85.142 45.6084C84.9702 45.952 84.8843 46.3815 84.8843 46.897C84.8843 47.3878 84.9702 47.8174 85.142 48.1855C85.3261 48.5414 85.5716 48.8114 85.8784 48.9955C86.1851 49.1795 86.5226 49.2716 86.8908 49.2716Z" fill="white" fill-opacity="0.85"/>
<path d="M97.6772 51.8855V41.9084H101.156V45.6084H104.746V41.9084H108.243V51.8855H104.746V48.388H101.156V51.8855H97.6772Z" fill="white" fill-opacity="0.85"/>
<path d="M130.244 50.3576V44.688H127.575L127.538 45.6452C127.513 46.1238 127.483 46.5779 127.446 47.0074C127.421 47.4247 127.36 47.8051 127.262 48.1487C127.163 48.4923 127.022 48.7868 126.838 49.0323C126.654 49.2654 126.409 49.4373 126.102 49.5477L122.678 49.0875C123.009 49.0875 123.279 48.9955 123.488 48.8114C123.709 48.615 123.881 48.3451 124.003 48.0014C124.126 47.6578 124.212 47.2651 124.261 46.8233C124.323 46.3693 124.365 45.8907 124.39 45.3875L124.519 41.9084H133.741V50.3576H130.244ZM122.347 53.9472V49.0875H135.122V53.9472H131.882V51.8855H125.605V53.9472H122.347Z" fill="white" fill-opacity="0.85"/>
<path d="M139.294 51.8855L139.441 49.0323C139.527 49.0446 139.607 49.0568 139.681 49.0691C139.754 49.0691 139.822 49.0691 139.883 49.0691C140.19 49.0691 140.429 48.9955 140.601 48.8482C140.785 48.6887 140.92 48.4739 141.006 48.2039C141.104 47.9339 141.172 47.621 141.208 47.2651C141.258 46.897 141.288 46.4981 141.301 46.0686L141.448 41.9084H150.468V51.8855H146.97V43.8965L147.743 44.688H143.749L144.485 43.8597L144.375 46.2159C144.338 47.1117 144.258 47.9278 144.135 48.6641C144.025 49.3882 143.847 50.0079 143.601 50.5233C143.356 51.0387 143.019 51.4376 142.589 51.7198C142.172 51.9898 141.638 52.1248 140.988 52.1248C140.754 52.1248 140.491 52.1003 140.196 52.0512C139.914 52.0144 139.613 51.9591 139.294 51.8855Z" fill="white" fill-opacity="0.85"/>
<path d="M162.777 51.8855V48.6457L163.237 49.1795H160.697C159.212 49.1795 158.04 48.8789 157.181 48.2776C156.322 47.664 155.892 46.7927 155.892 45.6636C155.892 44.461 156.34 43.5345 157.236 42.8841C158.132 42.2336 159.341 41.9084 160.862 41.9084H165.888V51.8855H162.777ZM155.727 51.8855L158.359 48.0935H161.893L159.427 51.8855H155.727ZM162.777 47.5965V43.8045L163.237 44.6696H160.936C160.47 44.6696 160.108 44.7617 159.85 44.9457C159.592 45.1175 159.463 45.3998 159.463 45.7925C159.463 46.5534 159.948 46.9338 160.918 46.9338H163.237L162.777 47.5965Z" fill="white" fill-opacity="0.85"/>
<path d="M187.953 51.8855L184.916 47.2283L187.732 45.5716L192.077 51.8855H187.953ZM180.958 51.8855V41.9084H184.456V51.8855H180.958ZM183.425 48.3328V45.59H187.033V48.3328H183.425ZM188.082 47.2835L184.806 46.9522L188.156 41.9084H191.856L188.082 47.2835Z" fill="white" fill-opacity="0.85"/>
<path d="M202.647 51.8855V50.0263L202.408 49.5661V46.1422C202.408 45.59 202.236 45.1666 201.892 44.8721C201.561 44.5653 201.027 44.4119 200.291 44.4119C199.812 44.4119 199.327 44.4917 198.837 44.6512C198.346 44.7985 197.928 45.0071 197.585 45.2771L196.407 42.9025C196.971 42.5343 197.646 42.2521 198.432 42.0557C199.229 41.8471 200.021 41.7428 200.806 41.7428C202.426 41.7428 203.678 42.1171 204.561 42.8656C205.457 43.602 205.905 44.7617 205.905 46.3447V51.8855H202.647ZM199.702 52.0512C198.904 52.0512 198.229 51.9162 197.677 51.6462C197.125 51.3762 196.701 51.0081 196.407 50.5417C196.124 50.0754 195.983 49.5538 195.983 48.9771C195.983 48.3635 196.137 47.8358 196.444 47.394C196.763 46.9399 197.247 46.5963 197.898 46.3631C198.548 46.1177 199.389 45.995 200.42 45.995H202.776V47.8174H200.898C200.334 47.8174 199.935 47.9094 199.702 48.0935C199.481 48.2776 199.37 48.523 199.37 48.8298C199.37 49.1366 199.487 49.382 199.72 49.5661C199.953 49.7502 200.272 49.8422 200.677 49.8422C201.058 49.8422 201.401 49.7502 201.708 49.5661C202.027 49.3698 202.26 49.0752 202.408 48.6825L202.886 49.9711C202.702 50.6583 202.34 51.1799 201.8 51.5357C201.273 51.8794 200.573 52.0512 199.702 52.0512Z" fill="white" fill-opacity="0.85"/>
<path d="M210.678 51.8855L210.826 49.0323C210.912 49.0446 210.991 49.0568 211.065 49.0691C211.139 49.0691 211.206 49.0691 211.267 49.0691C211.574 49.0691 211.814 48.9955 211.985 48.8482C212.169 48.6887 212.304 48.4739 212.39 48.2039C212.489 47.9339 212.556 47.621 212.593 47.2651C212.642 46.897 212.673 46.4981 212.685 46.0686L212.832 41.9084H221.852V51.8855H218.354V43.8965L219.128 44.688H215.133L215.869 43.8597L215.759 46.2159C215.722 47.1117 215.642 47.9278 215.52 48.6641C215.409 49.3882 215.231 50.0079 214.986 50.5233C214.74 51.0387 214.403 51.4376 213.973 51.7198C213.556 51.9898 213.022 52.1248 212.372 52.1248C212.139 52.1248 211.875 52.1003 211.58 52.0512C211.298 52.0144 210.997 51.9591 210.678 51.8855Z" fill="white" fill-opacity="0.85"/>
<path d="M233.738 45.001C235.063 45.0132 236.076 45.3078 236.775 45.8845C237.475 46.4613 237.824 47.2835 237.824 48.3512C237.824 49.4557 237.419 50.327 236.609 50.9651C235.812 51.591 234.707 51.8978 233.296 51.8855H227.884V41.9084H231.363V45.001H233.738ZM232.946 49.4925C233.363 49.4925 233.689 49.3943 233.922 49.198C234.155 49.0016 234.272 48.7009 234.272 48.296C234.272 47.8787 234.155 47.5842 233.922 47.4124C233.701 47.2406 233.376 47.1485 232.946 47.1363H231.363V49.4741L232.946 49.4925Z" fill="white" fill-opacity="0.85"/>
<path d="M248.611 51.8855V48.6457L249.071 49.1795H246.53C245.046 49.1795 243.874 48.8789 243.015 48.2776C242.156 47.664 241.726 46.7927 241.726 45.6636C241.726 44.461 242.174 43.5345 243.07 42.8841C243.966 42.2336 245.174 41.9084 246.696 41.9084H251.721V51.8855H248.611ZM241.56 51.8855L244.193 48.0935H247.727L245.26 51.8855H241.56ZM248.611 47.5965V43.8045L249.071 44.6696H246.77C246.303 44.6696 245.941 44.7617 245.684 44.9457C245.426 45.1175 245.297 45.3998 245.297 45.7925C245.297 46.5534 245.782 46.9338 246.751 46.9338H249.071L248.611 47.5965Z" fill="white" fill-opacity="0.85"/>
<path d="M257.754 51.8855V41.9084H261.233V45.6084H264.822V41.9084H268.32V51.8855H264.822V48.388H261.233V51.8855H257.754Z" fill="white" fill-opacity="0.85"/>
<path d="M276.201 55.6223C275.673 55.6223 275.14 55.5364 274.6 55.3646C274.072 55.205 273.642 54.9903 273.311 54.7203L274.526 52.2721C274.735 52.4561 274.974 52.5973 275.244 52.6954C275.526 52.8059 275.802 52.8611 276.072 52.8611C276.453 52.8611 276.753 52.7752 276.974 52.6034C277.195 52.4316 277.385 52.1616 277.545 51.7935L278.005 50.6338L278.281 50.284L281.668 41.9084H285L280.693 52.2905C280.349 53.1495 279.95 53.8183 279.496 54.2969C279.054 54.7878 278.557 55.1314 278.005 55.3278C277.465 55.5241 276.864 55.6223 276.201 55.6223ZM277.563 52.3089L273.164 41.9084H276.753L279.993 49.9711L277.563 52.3089Z" fill="white" fill-opacity="0.85"/>
</g>
<defs>
<linearGradient id="paint0_linear_831_334" x1="377.941" y1="1" x2="-4.71791" y2="0.999999" gradientUnits="userSpaceOnUse">
<stop offset="0.178237" stop-color="white" stop-opacity="0"/>
<stop offset="0.505125" stop-color="white"/>
<stop offset="1" stop-color="white" stop-opacity="0"/>
</linearGradient>
<clipPath id="clip0_831_334">
<rect width="311" height="95" fill="white"/>
</clipPath>
</defs>
</svg>
