<svg width="237" height="23" viewBox="0 0 237 23" fill="none" xmlns="http://www.w3.org/2000/svg">
<path d="M0.429563 3.70194V1.49131H15.8638V3.70194H9.39268V22.0703H6.9007V3.70194H0.429563ZM23.4202 22.3919C22.0268 22.3919 20.8043 22.0603 19.7525 21.3971C18.7075 20.7339 17.8902 19.8061 17.3007 18.6137C16.7179 17.4213 16.4265 16.0279 16.4265 14.4336C16.4265 12.8258 16.7179 11.4224 17.3007 10.2233C17.8902 9.02421 18.7075 8.09307 19.7525 7.42988C20.8043 6.76669 22.0268 6.43509 23.4202 6.43509C24.8135 6.43509 26.0327 6.76669 27.0778 7.42988C28.1295 8.09307 28.9468 9.02421 29.5296 10.2233C30.1191 11.4224 30.4138 12.8258 30.4138 14.4336C30.4138 16.0279 30.1191 17.4213 29.5296 18.6137C28.9468 19.8061 28.1295 20.7339 27.0778 21.3971C26.0327 22.0603 24.8135 22.3919 23.4202 22.3919ZM23.4202 20.2616C24.4786 20.2616 25.3495 19.9903 26.0327 19.4477C26.716 18.9051 27.2218 18.1917 27.55 17.3074C27.8783 16.4231 28.0424 15.4652 28.0424 14.4336C28.0424 13.4019 27.8783 12.4407 27.55 11.5497C27.2218 10.6587 26.716 9.93861 26.0327 9.3893C25.3495 8.83999 24.4786 8.56534 23.4202 8.56534C22.3617 8.56534 21.4909 8.83999 20.8076 9.3893C20.1243 9.93861 19.6185 10.6587 19.2903 11.5497C18.9621 12.4407 18.7979 13.4019 18.7979 14.4336C18.7979 15.4652 18.9621 16.4231 19.2903 17.3074C19.6185 18.1917 20.1243 18.9051 20.8076 19.4477C21.4909 19.9903 22.3617 20.2616 23.4202 20.2616ZM42.3136 22.0703V1.49131H44.685V9.08785H44.8859C45.0601 8.8199 45.3013 8.47825 45.6094 8.06292C45.9243 7.64089 46.3731 7.26576 46.9559 6.93751C47.5454 6.60256 48.3426 6.43509 49.3474 6.43509C50.647 6.43509 51.7925 6.75999 52.7839 7.40978C53.7754 8.05957 54.5491 8.98067 55.1051 10.1731C55.6611 11.3655 55.9391 12.7722 55.9391 14.3934C55.9391 16.0279 55.6611 17.4447 55.1051 18.6438C54.5491 19.8362 53.7787 20.7607 52.794 21.4172C51.8092 22.067 50.6738 22.3919 49.3876 22.3919C48.3962 22.3919 47.6023 22.2277 47.0061 21.8995C46.4099 21.5645 45.9511 21.1861 45.6295 20.764C45.308 20.3353 45.0601 19.9803 44.8859 19.6989H44.6046V22.0703H42.3136ZM44.6448 14.3532C44.6448 15.5188 44.8156 16.5471 45.1572 17.438C45.4989 18.3223 45.998 19.0156 46.6544 19.518C47.3109 20.0138 48.1148 20.2616 49.0661 20.2616C50.0575 20.2616 50.8848 20.0004 51.548 19.4778C52.2179 18.9486 52.7203 18.2385 53.0552 17.3476C53.3969 16.4499 53.5677 15.4518 53.5677 14.3532C53.5677 13.268 53.4002 12.2899 53.0653 11.4191C52.737 10.5415 52.238 9.84818 51.5681 9.33906C50.9049 8.82325 50.0709 8.56534 49.0661 8.56534C48.1014 8.56534 47.2908 8.80985 46.6344 9.29887C45.9779 9.78119 45.4821 10.4578 45.1472 11.3286C44.8123 12.1928 44.6448 13.201 44.6448 14.3532ZM66.0377 22.3919C64.5505 22.3919 63.2677 22.0636 62.1892 21.4071C61.1174 20.7439 60.29 19.8195 59.7072 18.6338C59.1311 17.4414 58.8431 16.0547 58.8431 14.4738C58.8431 12.8928 59.1311 11.4995 59.7072 10.2937C60.29 9.08116 61.1006 8.13661 62.1389 7.46002C63.184 6.77674 64.4032 6.43509 65.7965 6.43509C66.6004 6.43509 67.3942 6.56907 68.178 6.83702C68.9618 7.10498 69.6752 7.54041 70.3183 8.14331C70.9614 8.73951 71.4739 9.52998 71.8557 10.5147C72.2375 11.4995 72.4284 12.712 72.4284 14.1522V15.1571H60.5312V13.1072H70.0168C70.0168 12.2363 69.8427 11.4593 69.4943 10.776C69.1527 10.0927 68.6637 9.55343 68.0273 9.15819C67.3976 8.76296 66.654 8.56534 65.7965 8.56534C64.852 8.56534 64.0347 8.7998 63.3447 9.26872C62.6615 9.73095 62.1356 10.3338 61.7672 11.0774C61.3987 11.821 61.2145 12.6182 61.2145 13.4689V14.8355C61.2145 16.0011 61.4155 16.9892 61.8174 17.7998C62.226 18.6036 62.7921 19.2166 63.5156 19.6386C64.239 20.0539 65.0798 20.2616 66.0377 20.2616C66.6607 20.2616 67.2234 20.1745 67.7258 20.0004C68.2349 19.8195 68.6737 19.5515 69.0422 19.1965C69.4106 18.8347 69.6953 18.3859 69.8963 17.85L72.1873 18.4931C71.9461 19.2702 71.5408 19.9535 70.9714 20.543C70.402 21.1258 69.6986 21.5813 68.8613 21.9095C68.0239 22.2311 67.0827 22.3919 66.0377 22.3919ZM90.2643 22.3919C88.8173 22.3919 87.5713 22.0502 86.5263 21.3669C85.4812 20.6836 84.6774 19.7424 84.1147 18.5433C83.552 17.3442 83.2706 15.9743 83.2706 14.4336C83.2706 12.866 83.5587 11.4827 84.1348 10.2836C84.7176 9.07781 85.5281 8.13661 86.5665 7.46002C87.6115 6.77674 88.8307 6.43509 90.2241 6.43509C91.3093 6.43509 92.2873 6.63606 93.1582 7.03799C94.029 7.43993 94.7425 8.00263 95.2985 8.72611C95.8545 9.44959 96.1995 10.2937 96.3335 11.2583H93.962C93.7812 10.5549 93.3792 9.93191 92.7562 9.3893C92.1399 8.83999 91.3093 8.56534 90.2643 8.56534C89.3398 8.56534 88.5292 8.8065 87.8326 9.28882C87.1426 9.76444 86.6033 10.4377 86.2148 11.3085C85.8329 12.1727 85.642 13.1876 85.642 14.3532C85.642 15.5456 85.8296 16.5839 86.2047 17.4682C86.5866 18.3524 87.1225 19.0391 87.8125 19.5281C88.5091 20.0171 89.3264 20.2616 90.2643 20.2616C90.8806 20.2616 91.4399 20.1544 91.9423 19.9401C92.4447 19.7257 92.8701 19.4176 93.2185 19.0156C93.5668 18.6137 93.8147 18.1314 93.962 17.5687H96.3335C96.1995 18.4797 95.8679 19.3003 95.3387 20.0305C94.8162 20.754 94.1228 21.3301 93.2587 21.7588C92.4012 22.1808 91.4031 22.3919 90.2643 22.3919ZM106.07 22.3919C104.677 22.3919 103.454 22.0603 102.403 21.3971C101.358 20.7339 100.54 19.8061 99.9509 18.6137C99.368 17.4213 99.0766 16.0279 99.0766 14.4336C99.0766 12.8258 99.368 11.4224 99.9509 10.2233C100.54 9.02421 101.358 8.09307 102.403 7.42988C103.454 6.76669 104.677 6.43509 106.07 6.43509C107.464 6.43509 108.683 6.76669 109.728 7.42988C110.78 8.09307 111.597 9.02421 112.18 10.2233C112.769 11.4224 113.064 12.8258 113.064 14.4336C113.064 16.0279 112.769 17.4213 112.18 18.6137C111.597 19.8061 110.78 20.7339 109.728 21.3971C108.683 22.0603 107.464 22.3919 106.07 22.3919ZM106.07 20.2616C107.129 20.2616 108 19.9903 108.683 19.4477C109.366 18.9051 109.872 18.1917 110.2 17.3074C110.528 16.4231 110.693 15.4652 110.693 14.4336C110.693 13.4019 110.528 12.4407 110.2 11.5497C109.872 10.6587 109.366 9.93861 108.683 9.3893C108 8.83999 107.129 8.56534 106.07 8.56534C105.012 8.56534 104.141 8.83999 103.458 9.3893C102.774 9.93861 102.269 10.6587 101.94 11.5497C101.612 12.4407 101.448 13.4019 101.448 14.4336C101.448 15.4652 101.612 16.4231 101.94 17.3074C102.269 18.1917 102.774 18.9051 103.458 19.4477C104.141 19.9903 105.012 20.2616 106.07 20.2616ZM119.055 12.7856V22.0703H116.684V6.63606H118.975V9.04766H119.176C119.538 8.26389 120.087 7.63419 120.824 7.15857C121.561 6.67625 122.512 6.43509 123.678 6.43509C124.723 6.43509 125.637 6.64946 126.421 7.07819C127.204 7.50022 127.814 8.14331 128.249 9.00747C128.685 9.86493 128.903 10.9501 128.903 12.2631V22.0703H126.531V12.4239C126.531 11.2114 126.216 10.2669 125.587 9.59027C124.957 8.90698 124.093 8.56534 122.994 8.56534C122.237 8.56534 121.561 8.72946 120.964 9.05771C120.375 9.38596 119.909 9.86493 119.568 10.4946C119.226 11.1243 119.055 11.888 119.055 12.7856ZM139.948 6.63606V8.64573H131.95V6.63606H139.948ZM134.281 2.93827H136.652V17.649C136.652 18.3189 136.75 18.8213 136.944 19.1563C137.145 19.4845 137.399 19.7056 137.708 19.8195C138.022 19.9267 138.354 19.9803 138.702 19.9803C138.964 19.9803 139.178 19.9669 139.345 19.9401C139.513 19.9066 139.647 19.8798 139.747 19.8597L140.23 21.9899C140.069 22.0502 139.844 22.1105 139.556 22.1708C139.268 22.2378 138.903 22.2713 138.461 22.2713C137.791 22.2713 137.135 22.1273 136.492 21.8392C135.855 21.5511 135.326 21.1124 134.904 20.5229C134.489 19.9334 134.281 19.1898 134.281 18.2921V2.93827ZM143.515 22.0703V6.63606H145.887V22.0703H143.515ZM144.721 4.06368C144.259 4.06368 143.86 3.90626 143.525 3.59141C143.197 3.27656 143.033 2.89808 143.033 2.45595C143.033 2.01382 143.197 1.63533 143.525 1.32049C143.86 1.00564 144.259 0.848214 144.721 0.848214C145.183 0.848214 145.579 1.00564 145.907 1.32049C146.242 1.63533 146.409 2.01382 146.409 2.45595C146.409 2.89808 146.242 3.27656 145.907 3.59141C145.579 3.90626 145.183 4.06368 144.721 4.06368ZM152.602 12.7856V22.0703H150.23V6.63606H152.521V9.04766H152.722C153.084 8.26389 153.633 7.63419 154.37 7.15857C155.107 6.67625 156.058 6.43509 157.224 6.43509C158.269 6.43509 159.183 6.64946 159.967 7.07819C160.751 7.50022 161.36 8.14331 161.796 9.00747C162.231 9.86493 162.449 10.9501 162.449 12.2631V22.0703H160.078V12.4239C160.078 11.2114 159.763 10.2669 159.133 9.59027C158.503 8.90698 157.639 8.56534 156.541 8.56534C155.784 8.56534 155.107 8.72946 154.511 9.05771C153.921 9.38596 153.456 9.86493 153.114 10.4946C152.772 11.1243 152.602 11.888 152.602 12.7856ZM176.509 15.76V6.63606H178.881V22.0703H176.509V19.4577H176.348C175.987 20.2415 175.424 20.9081 174.66 21.4574C173.897 22 172.932 22.2713 171.766 22.2713C170.802 22.2713 169.944 22.0603 169.194 21.6382C168.444 21.2095 167.854 20.5664 167.425 19.709C166.997 18.8448 166.782 17.7562 166.782 16.4432V6.63606H169.154V16.2825C169.154 17.4079 169.469 18.3055 170.098 18.9754C170.735 19.6453 171.545 19.9803 172.53 19.9803C173.12 19.9803 173.719 19.8295 174.329 19.5281C174.945 19.2266 175.461 18.7644 175.876 18.1414C176.298 17.5184 176.509 16.7246 176.509 15.76ZM189.695 22.3919C188.208 22.3919 186.925 22.0636 185.847 21.4071C184.775 20.7439 183.947 19.8195 183.365 18.6338C182.789 17.4414 182.5 16.0547 182.5 14.4738C182.5 12.8928 182.789 11.4995 183.365 10.2937C183.947 9.08116 184.758 8.13661 185.796 7.46002C186.841 6.77674 188.061 6.43509 189.454 6.43509C190.258 6.43509 191.052 6.56907 191.835 6.83702C192.619 7.10498 193.333 7.54041 193.976 8.14331C194.619 8.73951 195.131 9.52998 195.513 10.5147C195.895 11.4995 196.086 12.712 196.086 14.1522V15.1571H184.189V13.1072H193.674C193.674 12.2363 193.5 11.4593 193.152 10.776C192.81 10.0927 192.321 9.55343 191.685 9.15819C191.055 8.76296 190.311 8.56534 189.454 8.56534C188.509 8.56534 187.692 8.7998 187.002 9.26872C186.319 9.73095 185.793 10.3338 185.425 11.0774C185.056 11.821 184.872 12.6182 184.872 13.4689V14.8355C184.872 16.0011 185.073 16.9892 185.475 17.7998C185.883 18.6036 186.449 19.2166 187.173 19.6386C187.896 20.0539 188.737 20.2616 189.695 20.2616C190.318 20.2616 190.881 20.1745 191.383 20.0004C191.892 19.8195 192.331 19.5515 192.7 19.1965C193.068 18.8347 193.353 18.3859 193.554 17.85L195.845 18.4931C195.604 19.2702 195.198 19.9535 194.629 20.543C194.059 21.1258 193.356 21.5813 192.519 21.9095C191.681 22.2311 190.74 22.3919 189.695 22.3919ZM205.521 22.3919C204.235 22.3919 203.1 22.067 202.115 21.4172C201.13 20.7607 200.36 19.8362 199.804 18.6438C199.248 17.4447 198.97 16.0279 198.97 14.3934C198.97 12.7722 199.248 11.3655 199.804 10.1731C200.36 8.98067 201.133 8.05957 202.125 7.40978C203.116 6.75999 204.262 6.43509 205.561 6.43509C206.566 6.43509 207.36 6.60256 207.943 6.93751C208.532 7.26576 208.981 7.64089 209.289 8.06292C209.604 8.47825 209.849 8.8199 210.023 9.08785H210.224V1.49131H212.595V22.0703H210.304V19.6989H210.023C209.849 19.9803 209.601 20.3353 209.279 20.764C208.958 21.1861 208.499 21.5645 207.903 21.8995C207.307 22.2277 206.513 22.3919 205.521 22.3919ZM205.843 20.2616C206.794 20.2616 207.598 20.0138 208.254 19.518C208.911 19.0156 209.41 18.3223 209.752 17.438C210.093 16.5471 210.264 15.5188 210.264 14.3532C210.264 13.201 210.097 12.1928 209.762 11.3286C209.427 10.4578 208.931 9.78119 208.274 9.29887C207.618 8.80985 206.807 8.56534 205.843 8.56534C204.838 8.56534 204.001 8.82325 203.331 9.33906C202.668 9.84818 202.168 10.5415 201.834 11.4191C201.505 12.2899 201.341 13.268 201.341 14.3532C201.341 15.4518 201.509 16.4499 201.844 17.3476C202.185 18.2385 202.688 18.9486 203.351 19.4778C204.021 20.0004 204.851 20.2616 205.843 20.2616ZM218.996 22.2311C218.5 22.2311 218.075 22.0536 217.72 21.6985C217.365 21.3435 217.187 20.9181 217.187 20.4224C217.187 19.9267 217.365 19.5013 217.72 19.1462C218.075 18.7912 218.5 18.6137 218.996 18.6137C219.492 18.6137 219.917 18.7912 220.272 19.1462C220.627 19.5013 220.805 19.9267 220.805 20.4224C220.805 20.7506 220.721 21.0521 220.554 21.3267C220.393 21.6014 220.175 21.8225 219.9 21.9899C219.632 22.1507 219.331 22.2311 218.996 22.2311ZM226.789 22.2311C226.293 22.2311 225.867 22.0536 225.512 21.6985C225.157 21.3435 224.98 20.9181 224.98 20.4224C224.98 19.9267 225.157 19.5013 225.512 19.1462C225.867 18.7912 226.293 18.6137 226.789 18.6137C227.284 18.6137 227.71 18.7912 228.065 19.1462C228.42 19.5013 228.597 19.9267 228.597 20.4224C228.597 20.7506 228.514 21.0521 228.346 21.3267C228.185 21.6014 227.968 21.8225 227.693 21.9899C227.425 22.1507 227.124 22.2311 226.789 22.2311ZM234.581 22.2311C234.085 22.2311 233.66 22.0536 233.305 21.6985C232.95 21.3435 232.772 20.9181 232.772 20.4224C232.772 19.9267 232.95 19.5013 233.305 19.1462C233.66 18.7912 234.085 18.6137 234.581 18.6137C235.077 18.6137 235.502 18.7912 235.857 19.1462C236.212 19.5013 236.39 19.9267 236.39 20.4224C236.39 20.7506 236.306 21.0521 236.139 21.3267C235.978 21.6014 235.76 21.8225 235.485 21.9899C235.217 22.1507 234.916 22.2311 234.581 22.2311Z" fill="white"/>
</svg>
