<svg width="50" height="50" viewBox="0 0 50 50" fill="none" xmlns="http://www.w3.org/2000/svg">
<g clip-path="url(#clip0_1960_2)">
<mask id="mask0_1960_2" style="mask-type:luminance" maskUnits="userSpaceOnUse" x="0" y="0" width="50" height="50">
<path d="M50 0H0V50H50V0Z" fill="white"/>
</mask>
<g mask="url(#mask0_1960_2)">
<path d="M25 50C38.8071 50 50 38.8071 50 25C50 11.1929 38.8071 0 25 0C11.1929 0 0 11.1929 0 25C0 38.8071 11.1929 50 25 50Z" fill="#131313"/>
</g>
<path d="M25.5366 27.88C26.2455 28.3793 26.9887 28.7992 27.7547 29.117C28.2304 29.2895 28.9768 28.801 29.5256 28.4418C29.6628 28.3521 29.7877 28.2704 29.8928 28.2091L29.9274 28.1897C30.4443 27.8994 31.0184 27.577 31.7565 27.7324C32.4197 27.8686 34.695 29.6617 35.3238 30.2972C35.7355 30.7058 35.9641 31.137 35.9984 31.5796C36.067 33.2252 33.8603 35.0751 33.3344 35.3928C32.2139 36.2099 30.7161 36.1986 28.9096 35.3815C26.9773 34.5984 24.6677 32.9528 22.4381 30.9555C21.64 30.2405 20.1073 28.7351 19.6711 28.2323C17.4187 25.7923 15.5207 23.1708 14.6289 21.0486C14.2058 20.152 14 19.3236 14 18.5859C14 17.8596 14.2058 17.2127 14.606 16.6566C14.8461 16.2367 16.7784 13.9443 18.482 14.001C18.9051 14.0464 19.3395 14.2621 19.7626 14.6706C20.4029 15.2948 22.2437 17.5532 22.3809 18.2228C22.5374 18.9441 22.2128 19.5136 21.9204 20.0266L21.9007 20.0612C21.8348 20.1751 21.7454 20.3102 21.6477 20.4579C21.2878 21.0019 20.8149 21.7169 20.9848 22.1721C21.409 23.2162 22.015 24.2376 22.7456 25.1795C23.5565 26.149 24.8277 27.3806 25.5366 27.88Z" stroke="white" stroke-width="2"/>
</g>
<defs>
<clipPath id="clip0_1960_2">
<rect width="50" height="50" fill="white"/>
</clipPath>
</defs>
</svg>
